<svg t="1677226288546" class="icon" viewBox="0 0 1024 1024" version="1.1" xmlns="http://www.w3.org/2000/svg" p-id="828" width="200" height="200"><path d="M832.19650269 297.41873877c5.60764454 5.60764454 8.78530976 13.17796464 8.78530975 21.12212773V894.91326348c0 16.54255136-13.36488613 29.90743749-29.90743749 29.90743749H212.92562503c-16.54255136 0-29.90743749-13.36488613-29.90743747-29.9074375V117.3198886c0-16.54255136 13.36488613-29.90743749 29.90743749-29.9074375h396.927772c7.94416308 0 15.60794393 3.17766523 21.21558848 8.78530977l201.12751716 201.2209779zM772.00778473 332.27959559L596.11466795 156.38647883V332.27959559h175.89311678zM332.55537503 478.07835339a7.47685937 7.47685937 0 0 0-7.47685936 7.47685938v44.86115624a7.47685937 7.47685937 0 0 0 7.47685936 7.47685937h358.88924994a7.47685937 7.47685937 0 0 0 7.47685936-7.47685937v-44.86115624a7.47685937 7.47685937 0 0 0-7.47685936-7.47685938H332.55537503z m0 127.10660936a7.47685937 7.47685937 0 0 0-7.47685936 7.47685936v44.86115626a7.47685937 7.47685937 0 0 0 7.47685936 7.47685936h171.9677656a7.47685937 7.47685937 0 0 0 7.47685937-7.47685936v-44.86115626a7.47685937 7.47685937 0 0 0-7.47685937-7.47685936H332.55537503z" fill="#FFA94D" p-id="829"></path></svg>