<svg t="1677224550374" class="icon" viewBox="0 0 1024 1024" version="1.1" xmlns="http://www.w3.org/2000/svg" p-id="887" width="120" height="120"><path d="M974.31545115 342.0506096L49.68454885 342.0506096c-47.00162826 0-49.3915416 24.43022488-46.73608237 54.43691416l34.52096991 485.94903823c2.38991332 29.74114332 9.2941073 54.43691412 56.03018969 54.43691412l839.65620706 0c47.79826608 0 53.37473044-24.43022488 56.03018967-54.43691412l32.13105662-492.05659448C1023.70699274 360.63882418 1021.31707943 342.0506096 974.31545115 342.0506096z" fill="#FFA94D" p-id="888"></path><path d="M963.95916014 212.72974534c-1.32772963-32.92769441-11.94956649-40.62852615-40.09743429-40.62852616 0 0-322.37274995 0-380.26176108 0-57.88901114 0-64.79320508 0.79663778-108.60828231-46.20499051C398.61189108 86.59543213 412.9513709 87.12652397 337.80187481 87.12652397c-60.0133785 0-199.95607967 0-199.95607967 0-46.20499052 0-62.66883772-3.98318887-66.91757249 44.08062316-3.98318887 44.34616908-13.27729613 151.89226772-14.60502575 168.35611489l911.88469802 0L963.95916014 212.72974534z" fill="#FFA94D" p-id="889"></path></svg>